<?xml version="1.0" encoding="UTF-8"?>
<!-- Generated by Pixelmator Pro 2.4.5 -->
<svg width="1807" height="554" viewBox="0 0 1807 554" xmlns="http://www.w3.org/2000/svg" xmlns:xlink="http://www.w3.org/1999/xlink">
    <g id="New-Group-copy">
        <g id="Group">
            <path id="Rectangle" fill="#000000" fill-rule="evenodd" stroke="none" d="M 1216.554565 137.598938 L 1216.513062 -1.554871 L 1146.936157 -1.534119 L 1146.977661 137.61969 Z"/>
            <path id="Shape" fill="#000000" fill-rule="evenodd" stroke="none" d="M 1176.092529 555.072571 L 1251.467529 555.05011 L 1251.457153 520.261658 L 1176.082153 520.284119 Z"/>
            <path id="path1" fill="#000000" fill-rule="evenodd" stroke="none" d="M 1112.303345 520.303101 L 1187.678345 520.28064 L 1187.667969 485.492188 L 1112.292969 485.514679 Z"/>
            <path id="path2" fill="#000000" fill-rule="evenodd" stroke="none" d="M 1176.071777 485.495667 L 1251.446777 485.473175 L 1251.436401 450.684723 L 1176.061401 450.707184 Z"/>
            <path id="path3" fill="#000000" fill-rule="evenodd" stroke="none" d="M 1112.282593 450.726196 L 1187.657593 450.703735 L 1187.647217 415.915283 L 1112.272217 415.937744 Z"/>
            <path id="path4" fill="#000000" fill-rule="evenodd" stroke="none" d="M 1176.051025 415.918732 L 1251.426025 415.89624 L 1251.415649 381.107788 L 1176.040649 381.13028 Z"/>
            <path id="path5" fill="#000000" fill-rule="evenodd" stroke="none" d="M 1112.261841 381.149292 L 1187.636841 381.126831 L 1187.626465 346.338348 L 1112.251465 346.36084 Z"/>
            <path id="path6" fill="#000000" fill-rule="evenodd" stroke="none" d="M 1176.030273 346.341797 L 1251.405273 346.319336 L 1251.394897 311.530884 L 1176.019897 311.553345 Z"/>
            <path id="path7" fill="#000000" fill-rule="evenodd" stroke="none" d="M 1112.241089 311.572388 L 1187.616089 311.549896 L 1187.605713 276.761444 L 1112.230713 276.783905 Z"/>
            <path id="path8" fill="#000000" fill-rule="evenodd" stroke="none" d="M 1176.009521 276.764893 L 1251.384521 276.742432 L 1251.374146 241.953949 L 1175.999146 241.97644 Z"/>
            <path id="path9" fill="#000000" fill-rule="evenodd" stroke="none" d="M 1112.220337 241.995453 L 1187.595337 241.972961 L 1187.584961 207.184509 L 1112.209961 207.207001 Z"/>
            <path id="path10" fill="#000000" fill-rule="evenodd" stroke="none" d="M 1175.98877 207.187988 L 1251.36377 207.165497 L 1251.353394 172.377045 L 1175.978394 172.399506 Z"/>
        </g>
        <path id="Path" fill="#000000" fill-rule="evenodd" stroke="none" d="M 1390.548828 311.490234 L 1390.496094 137.546875 L 1494.863281 137.515625 L 1529.660156 172.294922 L 1529.673828 215.779297 L 1494.896484 250.578125 L 1425.318359 250.599609 L 1425.337891 311.478516 L 1390.548828 311.490234 Z M 1425.308594 215.810547 L 1486.1875 215.792969 L 1494.882813 207.09375 L 1494.875 181.001953 L 1486.175781 172.306641 L 1425.294922 172.324219 L 1425.308594 215.810547 Z"/>
        <path id="Path--1" fill="#000000" fill-rule="evenodd" stroke="none" d="M 555.573853 137.796051 L 555.625732 311.738342 L 590.414185 311.727966 L 590.380493 198.665497 L 659.991089 311.707214 L 694.779541 311.696838 L 694.727722 137.754547 L 659.939209 137.764923 L 659.973816 253.726471 L 590.362305 137.785675 L 555.573853 137.796051 Z"/>
        <path id="Path--2" fill="#000000" fill-rule="evenodd" stroke="none" d="M 277.338806 381.398254 L 277.390656 555.340576 L 312.179138 555.3302 L 312.145416 442.2677 L 381.756042 555.309448 L 416.544495 555.299072 L 416.492645 381.35675 L 381.704163 381.367126 L 381.738739 497.328674 L 312.127258 381.387878 L 277.338806 381.398254 Z"/>
        <path id="path11" fill="#000000" fill-rule="evenodd" stroke="none" d="M 694.815857 433.456482 L 660.027405 433.466858 L 660.024841 424.769714 L 651.325134 416.075195 L 599.142395 416.090759 L 590.447876 424.790466 L 590.473816 511.761627 L 599.173523 520.456116 L 651.356262 520.440552 L 660.050781 511.740875 L 660.042969 485.649536 L 625.254517 485.659912 L 625.244141 450.87146 L 694.821045 450.850708 L 694.841797 520.427612 L 660.063721 555.22644 L 590.486816 555.247192 L 555.687988 520.469116 L 555.65686 416.103729 L 590.434937 381.304901 L 660.011841 381.284149 L 694.810669 416.062256 L 694.815857 433.456482 Z"/>
        <path id="path12" fill="#000000" fill-rule="evenodd" stroke="none" d="M 1494.934937 381.035187 L 1529.733765 415.813263 L 1529.738892 433.207489 L 1494.950439 433.217865 L 1494.947876 424.520752 L 1486.248169 415.826233 L 1434.06543 415.841797 L 1425.370972 424.541504 L 1425.376099 441.93573 L 1434.075806 450.630249 L 1494.955688 450.612091 L 1529.754517 485.390198 L 1529.765747 523.077698 L 1497.885742 554.976624 L 1422.510864 554.999084 L 1390.611816 523.119202 L 1390.605835 502.825928 L 1425.394287 502.815552 L 1425.396851 511.512665 L 1434.096558 520.207153 L 1486.279297 520.191589 L 1494.973755 511.491913 L 1494.968628 494.097687 L 1486.268921 485.403137 L 1425.389038 485.421326 L 1390.59021 450.643219 L 1390.579834 415.854767 L 1425.358032 381.055908 Z"/>
        <path id="path13" fill="#000000" fill-rule="evenodd" stroke="none" d="M 277.266174 137.879028 L 312.054626 137.868652 L 312.093536 268.325378 L 320.793243 277.019928 L 372.975952 277.004364 L 381.670471 268.304657 L 381.631561 137.847931 L 416.420013 137.837555 L 416.461517 276.991394 L 381.683441 311.790222 L 312.106506 311.810974 L 277.307678 277.032867 L 277.266174 137.879028 Z"/>
        <path id="path14" fill="#000000" fill-rule="evenodd" stroke="none" d="M 833.954163 381.2323 L 868.742615 381.221924 L 868.784119 520.375732 L 973.149475 520.344604 L 973.159851 555.133057 L 834.006042 555.174561 L 833.954163 381.2323 Z"/>
        <path id="path15" fill="#000000" fill-rule="evenodd" stroke="none" d="M 833.881531 137.713074 L 833.891907 172.501526 L 929.560181 172.472992 L 833.923035 276.866913 L 833.933411 311.655365 L 973.087219 311.613861 L 973.076904 276.825409 L 877.40863 276.853943 L 973.045776 172.460022 L 973.0354 137.67157 L 833.881531 137.713074 Z"/>
        <path id="path16" fill="#000000" fill-rule="evenodd" stroke="none" d="M 138.184952 381.439758 L 138.195328 416.22821 L 33.829948 416.259338 L 33.840324 451.047791 L 103.417244 451.027039 L 103.42762 485.815491 L 33.850697 485.836243 L 33.861069 520.624695 L 138.226456 520.593567 L 138.236816 555.38208 L -0.917016 555.423523 L -0.968885 381.481262 L 138.184952 381.439758 Z"/>
        <path id="path17" fill="#000000" fill-rule="evenodd" stroke="none" d="M 1668.877197 380.983307 L 1668.929077 554.925598 L 1703.717529 554.915222 L 1703.696777 485.338318 L 1773.273682 485.317566 L 1773.294434 554.89447 L 1808.082886 554.884094 L 1808.031006 380.941833 L 1773.242554 380.952209 L 1773.263306 450.529114 L 1703.686401 450.549866 L 1703.665649 380.972961 L 1668.877197 380.983307 Z"/>
    </g>
</svg>
